<svg xmlns="http://www.w3.org/2000/svg" viewBox="0 0 512 512" role="img" aria-label="Finanbase">
  <defs>
    <linearGradient id="bg" x1="64" y1="40" x2="448" y2="472" gradientUnits="userSpaceOnUse"><stop stop-color="#3478ff"/><stop offset="1" stop-color="#124bd4"/></linearGradient>
    <linearGradient id="accent" x1="160" y1="130" x2="363" y2="369" gradientUnits="userSpaceOnUse"><stop stop-color="#7ff4d2"/><stop offset="1" stop-color="#21cf9a"/></linearGradient>
    <filter id="shadow" x="-20%" y="-20%" width="140%" height="140%"><feDropShadow dx="0" dy="14" stdDeviation="18" flood-color="#082b83" flood-opacity=".32"/></filter>
  </defs>
  <rect x="24" y="24" width="464" height="464" rx="116" fill="url(#bg)"/>
  <g filter="url(#shadow)">
    <path d="M130 151c0-25 20-45 45-45h170c25 0 45 20 45 45v211c0 25-20 45-45 45H175c-25 0-45-20-45-45V151Z" fill="#fff"/>
    <path d="M130 178h260v65H130z" fill="#eaf1ff"/>
    <path d="M184 156h132M184 219h93M184 219v126" fill="none" stroke="#2161f5" stroke-width="28" stroke-linecap="round"/>
    <path d="m246 330 47-48 35 30 52-67" fill="none" stroke="url(#accent)" stroke-width="25" stroke-linecap="round" stroke-linejoin="round"/>
    <circle cx="380" cy="245" r="13" fill="#21cf9a"/>
  </g>
</svg>
